<svg id="Layer_1" data-name="Layer 1" xmlns="http://www.w3.org/2000/svg" viewBox="0 0 400 300" data-imageid="motivation-two-color-b2f05" imageName="Motivation" class="illustrations_image" style="width: 134px;"><title>_</title><ellipse cx="200" cy="231.85" rx="141.02" ry="20.51" fill="#e6e6e6" opacity="0.45"/><path d="M235.38,200l0,12.25c0,5.55-15.48,10-34.56,10s-34.54-4.56-34.53-10.11l0-12.25Z" fill="#ffd200"/><path d="M235.36,214.78l0,12.25c0,5.55-15.49,10-34.57,10s-34.54-4.56-34.53-10.11l0-12.25Z" fill="#ffd200"/><path d="M235.36,214.78l0,12.25c0,5.55-15.49,10-34.57,10s-34.54-4.56-34.53-10.11l0-12.25Z" opacity="0.08"/><ellipse cx="200.47" cy="214.31" rx="9.96" ry="34.23" transform="translate(-14.18 414.43) rotate(-89.9)" fill="#ffd200"/><path d="M235.38,200l0,12.25c0,5.55-15.48,10-34.56,10s-34.54-4.56-34.53-10.11l0-12.25Z" opacity="0.08"/><path d="M232.9,185.38l0,12.25c0,5.55-15.49,10-34.57,10s-34.54-4.56-34.53-10.11l0-12.25Z" fill="#ffd200"/><path d="M235.43,170.62l0,12.25c0,5.55-15.48,10-34.56,10s-34.54-4.56-34.53-10.11l0-12.24Z" fill="#ffd200"/><ellipse cx="200.5" cy="199.69" rx="9.96" ry="34.23" transform="translate(0.47 399.85) rotate(-89.9)" fill="#ffd200"/><path d="M232.9,185.38l0,12.25c0,5.55-15.49,10-34.57,10s-34.54-4.56-34.53-10.11l0-12.25Z" opacity="0.08"/><ellipse cx="198.03" cy="185.18" rx="9.96" ry="34.23" transform="translate(12.51 382.9) rotate(-89.9)" fill="#ffd200"/><path d="M235.43,170.62l0,12.25c0,5.55-15.48,10-34.56,10s-34.54-4.56-34.53-10.11l0-12.24Z" opacity="0.08"/><ellipse cx="200.87" cy="170.56" rx="9.96" ry="34.56" transform="translate(29.97 371.15) rotate(-89.9)" fill="#ffd200"/><path d="M315.64,197.53l0,13.71c0,6.21-17.34,11.22-38.69,11.18s-38.66-5.1-38.65-11.31l0-13.71Z" fill="#ffd200"/><path d="M315.61,214.05l0,13.71c0,6.22-17.33,11.22-38.69,11.19s-38.66-5.1-38.65-11.32l0-13.71Z" fill="#ffd200"/><path d="M315.61,214.05l0,13.71c0,6.22-17.33,11.22-38.69,11.19s-38.66-5.1-38.65-11.32l0-13.71Z" opacity="0.08"/><ellipse cx="276.56" cy="213.53" rx="11.15" ry="38.31" transform="translate(62.56 489.73) rotate(-89.9)" fill="#ffd200"/><path d="M315.64,197.53l0,13.71c0,6.21-17.34,11.22-38.69,11.18s-38.66-5.1-38.65-11.31l0-13.71Z" opacity="0.08"/><path d="M312.85,181.14l0,13.71c0,6.22-17.33,11.22-38.69,11.19s-38.66-5.1-38.65-11.32l0-13.71Z" fill="#ffd200"/><path d="M315.69,164.63l0,13.71c0,6.21-17.33,11.22-38.69,11.18s-38.66-5.1-38.65-11.31l0-13.71Z" fill="#ffd200"/><ellipse cx="276.59" cy="197.16" rx="11.15" ry="38.31" transform="translate(78.96 473.42) rotate(-89.9)" fill="#ffd200"/><path d="M312.85,181.14l0,13.71c0,6.22-17.33,11.22-38.69,11.19s-38.66-5.1-38.65-11.32l0-13.71Z" opacity="0.08"/><ellipse cx="273.83" cy="180.93" rx="11.15" ry="38.31" transform="translate(92.44 454.45) rotate(-89.9)" fill="#ffd200"/><path d="M315.69,164.63l0,13.71c0,6.21-17.33,11.22-38.69,11.18s-38.66-5.1-38.65-11.31l0-13.71Z" opacity="0.08"/><ellipse cx="277.01" cy="164.56" rx="11.15" ry="38.68" transform="translate(111.98 441.29) rotate(-89.9)" fill="#ffd200"/><path d="M272.83,56.45s4.52-8.61,5.39-8a2.09,2.09,0,0,1,.65,1.91s2.58-4.11,4.55-2.24S282.58,55.81,278,58Z" fill="#f4a28c"/><path d="M209.89,82.31s41.67-4,62.46-28.37l8.34,3.83S271.72,74,260,85.23c-21.36,20.42-45.61,22.84-45.61,22.84Z" fill="#68e1fd" class="target-color"/><path d="M209.89,82.31s41.67-4,62.46-28.37l8.34,3.83S271.72,74,260,85.23c-21.36,20.42-45.61,22.84-45.61,22.84Z" fill="#fff" opacity="0.46"/><path d="M109.42,54.49s-2.47-5-3.34-4.37a2.09,2.09,0,0,0-.65,1.91s-2.57-4.11-4.54-2.24.83,7.68,5.37,9.83Z" fill="#f4a28c"/><path d="M210.37,59.55a30.71,30.71,0,0,1,1.1,8.15A2.47,2.47,0,0,1,208.82,70a5.48,5.48,0,0,1-5-3.27l-2.24-4a4.43,4.43,0,0,1,1.06-5C205,55.25,209.71,56.61,210.37,59.55Z" fill="#f4a28c"/><polygon points="202.53 63.74 198.65 79.48 207.47 81 206.78 69.25 202.53 63.74" fill="#f4a28c"/><path d="M211,62.6l1.71,1.62a.8.8,0,0,1-.26,1.32l-1.8.69Z" fill="#f4a28c"/><path d="M206.8,69.58s-3-1.39-3.84-2.62c0,0,.17,6.47,4.18,8.36Z" fill="#ce8172" opacity="0.31"/><path d="M205.45,64s-.39-1.86-1.77-1.46-.84,3.11,1.12,3Z" fill="#f4a28c"/><path d="M199.73,61.66l1,1.78S202,68,205.05,70.38s7.33,1.87,7.7-1.34c.42-3.69-2.06-2.81-5.37-3s-2.8-4.59-2.8-4.59a3.78,3.78,0,0,0,3.13-1.64l1.94-1a3.43,3.43,0,0,0,1.24-5.06,4.62,4.62,0,0,0-2.91-2C204.56,51.2,196.49,56.35,199.73,61.66Z" fill="#24285b"/><path d="M202.6,62.11s-2.4-1.42-3.3.49,1.79,3.41,3.61,2.25A4,4,0,0,1,202.6,62.11Z" fill="#f4a28c"/><polygon points="207.14 208.86 209.9 172.79 221.39 174.54 224.82 188.38 222.27 208.86 207.14 208.86" opacity="0.08"/><path d="M208.58,204.12s1.23,3.42,4.31,3.68,3.9,3.28,1.12,4.06-9.93-2.78-9.93-2.78l.2-4.45Z" fill="#68e1fd" class="target-color"/><path d="M217.15,133.76c-6.48,12.29-4.55,34.85-4.55,34.85l-34.78-1q-1.32-2.39-2.5-4.82c-11.52-23.47-14.38-49.73-12.67-64.41a27.82,27.82,0,0,1,2.25-9c5.14-10.05,34.5-10.1,34.5-10.1l8.83,1.52C243.77,95.36,223.62,121.47,217.15,133.76Z" fill="#68e1fd" class="target-color"/><path d="M177.82,167.61l17-2.57a16.28,16.28,0,0,1,18.62,17.77l-2.22,21.61h-8.34l.72-20.23a7.66,7.66,0,0,0-8.86-7.85C187.51,177.51,178.54,177,177.82,167.61Z" fill="#24285b"/><path d="M225.89,204.12s1.23,3.42,4.32,3.68,3.89,3.28,1.11,4.06-9.93-2.78-9.93-2.78l.2-4.45Z" fill="#68e1fd" class="target-color"/><path d="M206.12,166.65l-28.3.95-2.42-4.73-.08-.09c-11.52-23.47-14.38-49.73-12.67-64.41L180.8,93s9.64,8.45,7.71,17.78c-.32,1.51-.64,3.33-1,5.33A53.27,53.27,0,0,0,200,159.71Z" opacity="0.08"/><path d="M195.13,167.61l17-2.57a16.29,16.29,0,0,1,18.63,17.77l-2.22,21.61H220.2l.72-20.23a7.65,7.65,0,0,0-8.86-7.85C204.82,177.51,195.85,177,195.13,167.61Z" fill="#24285b"/><path d="M182.35,82.74S146.72,76.13,110,53.28l-5.57,7.09s38.3,40.49,70,46C188.16,108.77,200.12,88.56,182.35,82.74Z" fill="#68e1fd" class="target-color"/><path d="M182.35,82.74S146.72,76.13,110,53.28l-5.57,7.09s38.3,40.49,70,46C188.16,108.77,200.12,88.56,182.35,82.74Z" fill="#fff" opacity="0.46"/><polygon points="295.9 166.16 300.75 138.74 266.35 138.74 263.37 162.11 247.59 162.33 247.59 166.16 295.9 166.16" fill="#24285b"/><circle cx="282.2" cy="151.88" r="3.44" fill="#fff"/><path d="M160.06,196.51l0,13.71c0,6.21-17.34,11.22-38.69,11.18s-38.66-5.1-38.65-11.31l0-13.71Z" fill="#ffd200"/><path d="M160,213l0,13.71c0,6.21-17.33,11.22-38.69,11.18s-38.66-5.1-38.65-11.31l0-13.71Z" fill="#ffd200"/><path d="M160,213l0,13.71c0,6.21-17.33,11.22-38.69,11.18s-38.66-5.1-38.65-11.31l0-13.71Z" opacity="0.08"/><ellipse cx="120.98" cy="212.51" rx="11.15" ry="38.31" transform="translate(-91.73 333.13) rotate(-89.9)" fill="#ffd200"/><path d="M160.06,196.51l0,13.71c0,6.21-17.34,11.22-38.69,11.18s-38.66-5.1-38.65-11.31l0-13.71Z" opacity="0.08"/><path d="M157.27,180.12l0,13.71c0,6.21-17.33,11.22-38.69,11.18s-38.66-5.1-38.65-11.31l0-13.71Z" fill="#ffd200"/><path d="M160.11,163.6l0,13.71c0,6.21-17.33,11.22-38.69,11.19s-38.66-5.11-38.65-11.32l0-13.71Z" fill="#ffd200"/><ellipse cx="121.01" cy="196.14" rx="11.15" ry="38.31" transform="translate(-75.33 316.82) rotate(-89.9)" fill="#ffd200"/><path d="M157.27,180.12l0,13.71c0,6.21-17.33,11.22-38.69,11.18s-38.66-5.1-38.65-11.31l0-13.71Z" opacity="0.08"/><ellipse cx="118.25" cy="179.9" rx="11.15" ry="38.31" transform="translate(-61.85 297.85) rotate(-89.9)" fill="#ffd200"/><path d="M160.11,163.6l0,13.71c0,6.21-17.33,11.22-38.69,11.19s-38.66-5.11-38.65-11.32l0-13.71Z" opacity="0.08"/><circle cx="158.59" cy="211.78" r="28.71" opacity="0.08"/><path d="M139.49,183s-30.05,9.17-25.23,54.68c0,0,19.6.66,28.9-1.72C151.47,233.86,139.49,183,139.49,183Z" opacity="0.08"/><ellipse cx="121.43" cy="163.54" rx="11.15" ry="38.68" transform="translate(-42.31 284.69) rotate(-89.9)" fill="#ffd200"/><circle cx="158.59" cy="211.78" r="28.71" fill="#ffd200"/><circle cx="158.59" cy="211.78" r="28.71" opacity="0.08"/><g opacity="0.08"><circle cx="159.99" cy="203.14" r="28.71"/></g><circle cx="159.99" cy="203.14" r="28.71" fill="#ffd200"/><path d="M160.91,190.3c.82,0,1.06.28,1.06,1.09v1.73a7.89,7.89,0,0,1,6.5,4.91c.42.84.25,1.3-.71,1.73l-1.73.77c-.81.39-1.2.21-1.66-.63a4.41,4.41,0,0,0-4.51-2.72c-3,0-4.38.88-4.38,2.89a2.68,2.68,0,0,0,2.43,2.37,20.67,20.67,0,0,0,2.55.39,16.34,16.34,0,0,1,4.69.91,6.46,6.46,0,0,1,2.08,1.13,6.83,6.83,0,0,1,1.87,4.95c0,3.84-2.57,6.46-7.13,7.13v1.83c0,.81-.24,1.1-1.06,1.1H159c-.81,0-1.09-.29-1.09-1.1V217a8,8,0,0,1-7.06-5.43,1.16,1.16,0,0,1,.81-1.63l1.73-.63c.88-.32,1.27-.11,1.66.77q1.17,3,4.77,3c3.24,0,4.87-1,4.87-3.11a2.18,2.18,0,0,0-1.52-2.19,12,12,0,0,0-3.5-.67,15.69,15.69,0,0,1-4.73-1,6.71,6.71,0,0,1-2-1.17,6.42,6.42,0,0,1-1.91-4.8c0-3.81,2.4-6.35,6.92-6.95v-1.73c0-.81.28-1.09,1.09-1.09Z" fill="#fff"/><path d="M113,151.76s-8.31-2.27-10.12-10c0,0,12.88-2.61,13.25,10.69Z" fill="#68e1fd" opacity="0.58" class="target-color"/><path d="M114,150.94s-5.81-9.18-.7-17.76c0,0,9.8,6.21,5.44,17.78Z" fill="#68e1fd" opacity="0.73" class="target-color"/><path d="M115.54,151s3.06-9.7,12.34-11.54c0,0,1.74,6.3-6,11.56Z" fill="#68e1fd" class="target-color"/><polygon points="109.51 150.73 111.19 162.26 121.81 162.3 123.37 150.79 109.51 150.73" fill="#24285b"/></svg>