<?xml version="1.0" standalone="no"?>
<!DOCTYPE svg PUBLIC "-//W3C//DTD SVG 20010904//EN"
 "http://www.w3.org/TR/2001/REC-SVG-20010904/DTD/svg10.dtd">
<svg version="1.0" xmlns="http://www.w3.org/2000/svg"
 width="512.000000pt" height="512.000000pt" viewBox="0 0 512.000000 512.000000"
 preserveAspectRatio="xMidYMid meet">

<g transform="translate(0.000000,512.000000) scale(0.100000,-0.100000)"
fill="#000000" stroke="none">
<path d="M1081 4870 c-14 -66 -14 -244 0 -312 35 -166 176 -317 369 -395 84
-33 529 -93 698 -93 l44 0 -41 -46 c-128 -146 -128 -440 -1 -712 107 -227 270
-367 430 -367 211 0 421 244 501 583 17 71 20 110 17 212 -3 114 -6 131 -34
190 -17 36 -45 82 -63 102 l-31 36 82 6 c337 27 535 57 633 95 218 85 364 282
365 494 0 67 -22 237 -30 237 -4 0 -10 -17 -14 -38 -16 -102 -117 -242 -230
-318 -62 -42 -180 -89 -261 -103 -112 -20 -419 -50 -635 -62 -458 -25 -1168
20 -1370 87 -203 67 -348 211 -395 389 -8 32 -17 60 -19 62 -2 3 -9 -19 -15
-47z"/>
<path d="M1780 3933 c-225 -12 -470 -48 -666 -98 -761 -194 -1097 -696 -851
-1270 190 -444 687 -829 1322 -1025 105 -32 101 -34 166 63 88 133 105 310 41
440 -43 88 -123 161 -199 183 -103 30 -201 1 -298 -87 -29 -27 -55 -49 -58
-49 -7 0 -82 176 -106 249 -98 301 -46 585 123 676 l34 19 68 -45 c421 -272
735 -814 782 -1348 l8 -92 -46 -33 c-140 -100 -312 -279 -467 -483 l-85 -112
131 -193 c118 -174 130 -194 114 -205 -9 -7 -97 -58 -195 -114 -98 -56 -178
-103 -178 -105 0 -2 178 -4 395 -4 l396 0 -51 66 c-122 159 -157 305 -110 457
108 348 668 452 944 175 180 -181 176 -452 -11 -658 l-35 -40 398 0 c316 1
396 3 383 13 -9 7 -96 57 -193 112 -96 55 -175 104 -176 108 0 5 56 91 125
192 69 101 125 189 125 197 0 24 -184 251 -305 377 -90 93 -254 236 -292 256
-6 3 20 200 38 285 78 384 310 790 587 1026 82 70 218 164 238 164 7 0 35 -18
62 -40 68 -53 118 -153 134 -268 21 -151 -20 -355 -108 -541 l-44 -94 -50 47
c-176 165 -402 124 -502 -90 -56 -121 -55 -253 6 -379 18 -38 51 -89 72 -113
l39 -42 145 49 c176 59 240 85 395 163 576 289 946 759 946 1203 0 226 -83
412 -257 574 -270 253 -719 397 -1358 436 -86 5 -98 4 -92 -10 33 -87 32 -321
-3 -463 -47 -190 -143 -370 -267 -501 -92 -97 -174 -151 -278 -183 -56 -17
-86 -20 -165 -16 -84 4 -108 10 -172 39 -292 134 -509 524 -509 913 0 61 6
137 14 169 l13 57 -31 -2 c-17 -1 -56 -3 -86 -5z"/>
</g>
</svg>
