<svg id="Layer_1" data-name="Layer 1" xmlns="http://www.w3.org/2000/svg" viewBox="0 0 400 300" data-imageid="revenue-two-color-01270" imageName="Revenue" class="illustrations_image" style="width: 134px;"><polygon points="363.12 77.1 318.81 88.8 329.59 99.23 275.15 156.65 227.94 93.78 158.3 161.76 93.5 134.07 44.69 186.77 56.24 197.47 97.51 152.91 161.77 180.37 226.11 117.57 273.75 181 340.9 110.19 352.44 121.35 363.12 77.1" fill="#68e1fd" class="target-color"/><ellipse cx="199.06" cy="251.89" rx="142.03" ry="14.47" fill="#e6e6e6" opacity="0.45"/><rect x="244.79" y="233.05" width="57.65" height="15.18" fill="#e6e6e6"/><rect x="232.19" y="218.21" width="57.65" height="15.18" fill="#e6e6e6" opacity="0.43"/><rect x="146.88" y="43.54" width="114.13" height="204.69" fill="#c9c9c9"/><rect x="156.32" y="66.87" width="94.47" height="144.05" fill="#fff"/><circle cx="204.29" cy="229.37" r="11.17" fill="#fff" opacity="0.56"/><rect x="194.29" y="51.54" width="32" height="4.67" opacity="0.12"/><circle cx="182.7" cy="54.38" r="5.21" fill="#fff"/><polygon points="169.09 197.47 185.77 197.47 187.47 248.23 157.17 248.53 169.09 197.47" opacity="0.08"/><circle cx="204.4" cy="119.5" r="27.14" fill="#ffd200"/><circle cx="204.4" cy="119.5" r="27.14" opacity="0.08"/><path d="M106,219.62l0,11.87c0,5.38,15,9.72,33.51,9.69s33.49-4.42,33.48-9.8l0-11.88Z" fill="#ffd200"/><circle cx="204.4" cy="110.99" r="27.14" fill="#ffd200"/><path d="M205.84,97.94c.7,0,.92.25.92,1v1.5a6.81,6.81,0,0,1,5.62,4.25c.37.73.22,1.13-.61,1.5l-1.5.67c-.7.34-1,.18-1.43-.55a3.85,3.85,0,0,0-3.92-2.36c-2.6,0-3.79.77-3.79,2.51a2.31,2.31,0,0,0,2.11,2,19,19,0,0,0,2.2.34,14.21,14.21,0,0,1,4.07.79,5.64,5.64,0,0,1,1.8,1,5.89,5.89,0,0,1,1.62,4.28c0,3.33-2.23,5.6-6.17,6.18v1.59c0,.7-.22.95-.92.95h-1.68c-.7,0-.95-.25-.95-.95v-1.56a7,7,0,0,1-6.12-4.71,1,1,0,0,1,.71-1.41l1.5-.55c.76-.27,1.1-.09,1.43.67a4,4,0,0,0,4.13,2.57c2.82,0,4.22-.88,4.22-2.69a1.86,1.86,0,0,0-1.31-1.89,10.23,10.23,0,0,0-3-.58,13.86,13.86,0,0,1-4.1-.89,5.84,5.84,0,0,1-1.77-1,5.57,5.57,0,0,1-1.65-4.16c0-3.3,2.08-5.5,6-6v-1.5c0-.7.25-1,.95-1Z" fill="#fff"/><path d="M106.05,233.93l0,11.87c0,5.39,15,9.72,33.51,9.69s33.49-4.42,33.48-9.8l0-11.87Z" fill="#ffd200"/><path d="M106.05,233.93l0,11.87c0,5.39,15,9.72,33.51,9.69s33.49-4.42,33.48-9.8l0-11.87Z" opacity="0.08"/><ellipse cx="139.88" cy="233.48" rx="33.19" ry="9.66" transform="translate(-0.39 0.24) rotate(-0.1)" fill="#ffd200"/><path d="M106,219.62l0,11.87c0,5.38,15,9.72,33.51,9.69s33.49-4.42,33.48-9.8l0-11.88Z" opacity="0.08"/><path d="M108.44,205.42l0,11.88c0,5.38,15,9.72,33.51,9.69s33.49-4.42,33.48-9.81l0-11.87Z" fill="#ffd200"/><path d="M106,191.11,106,203c0,5.38,15,9.72,33.51,9.69s33.49-4.42,33.48-9.8L173,191Z" fill="#ffd200"/><ellipse cx="139.85" cy="219.3" rx="33.19" ry="9.66" transform="translate(-0.37 0.24) rotate(-0.1)" fill="#ffd200"/><path d="M108.44,205.42l0,11.88c0,5.38,15,9.72,33.51,9.69s33.49-4.42,33.48-9.81l0-11.87Z" opacity="0.08"/><ellipse cx="142.24" cy="205.23" rx="33.19" ry="9.66" transform="translate(-0.35 0.24) rotate(-0.1)" fill="#ffd200"/><path d="M106,191.11,106,203c0,5.38,15,9.72,33.51,9.69s33.49-4.42,33.48-9.8L173,191Z" opacity="0.08"/><circle cx="107.3" cy="232.85" r="24.87" opacity="0.08"/><path d="M123.84,208s26,8,21.86,47.37c0,0-17,.57-25-1.5C113.46,252,123.84,208,123.84,208Z" opacity="0.08"/><ellipse cx="139.49" cy="191.06" rx="33.51" ry="9.66" transform="translate(-0.32 0.23) rotate(-0.1)" fill="#ffd200"/><circle cx="107.3" cy="232.85" r="24.87" fill="#ffd200"/><circle cx="107.3" cy="232.85" r="24.87" opacity="0.08"/><g opacity="0.08"><circle cx="106.09" cy="225.36" r="24.87"/></g><circle cx="106.09" cy="225.36" r="24.87" fill="#ffd200"/><rect x="178.7" y="158.49" width="53.49" height="26.55" rx="6.19" fill="#24285b"/><path d="M319,237s-8.51-2.32-10.36-10.25c0,0,13.19-2.66,13.56,10.95Z" fill="#68e1fd" opacity="0.58" class="target-color"/><path d="M320.07,236.13s-5.95-9.41-.72-18.2c0,0,10,6.37,5.58,18.22Z" fill="#68e1fd" opacity="0.73" class="target-color"/><path d="M321.6,236.14s3.14-9.94,12.64-11.82c0,0,1.79,6.45-6.15,11.84Z" fill="#68e1fd" class="target-color"/><polygon points="315.43 235.91 317.15 247.72 328.02 247.77 329.62 235.97 315.43 235.91" fill="#24285b"/><path d="M107.12,212.3c.7,0,.91.24.91.94v1.5a6.84,6.84,0,0,1,5.63,4.25c.37.74.21,1.13-.61,1.5l-1.5.67c-.7.34-1,.19-1.44-.55a3.82,3.82,0,0,0-3.91-2.35c-2.6,0-3.79.76-3.79,2.51a2.31,2.31,0,0,0,2.11,2,15.41,15.41,0,0,0,2.2.34,14.28,14.28,0,0,1,4.07.8,5.64,5.64,0,0,1,1.8,1,5.91,5.91,0,0,1,1.62,4.29c0,3.33-2.23,5.59-6.18,6.17V237c0,.71-.21.95-.91.95h-1.68c-.71,0-1-.24-1-.95v-1.56a6.94,6.94,0,0,1-6.12-4.71,1,1,0,0,1,.7-1.4l1.5-.55c.77-.28,1.1-.09,1.44.67a4,4,0,0,0,4.13,2.57c2.81,0,4.22-.89,4.22-2.69a1.88,1.88,0,0,0-1.32-1.9,10.49,10.49,0,0,0-3-.58,13.48,13.48,0,0,1-4.1-.89,5.42,5.42,0,0,1-1.77-1,5.55,5.55,0,0,1-1.66-4.15c0-3.31,2.08-5.51,6-6v-1.5c0-.7.24-.94,1-.94Z" fill="#fff"/><rect x="200" y="162.57" width="25.09" height="7.49" fill="#fff" opacity="0.16"/></svg>